<svg width="20" height="9" viewBox="0 0 20 9" fill="none" xmlns="http://www.w3.org/2000/svg">
<path d="M8.7738e-05 4.4109C8.7738e-05 4.69227 0.22794 4.91985 0.509647 4.91985L17.8595 4.91985L14.8104 7.96528C14.711 8.06458 14.6613 8.19285 14.6613 8.32526C14.6613 8.45767 14.711 8.58595 14.8104 8.68525C15.0093 8.88387 15.3283 8.88387 15.5271 8.68525L19.442 4.77503C19.6326 4.58469 19.6326 4.24953 19.442 4.05919L15.5271 0.148961C15.3283 -0.0496537 15.0093 -0.0496537 14.8104 0.148961C14.6116 0.347576 14.6116 0.666187 14.8104 0.864801L17.8595 3.91023L0.509647 3.91023C0.22794 3.90195 8.7738e-05 4.12953 8.7738e-05 4.4109Z" fill="white"/>
</svg>
