<svg width="15" height="14" viewBox="0 0 15 14" fill="none" xmlns="http://www.w3.org/2000/svg">
<path fill-rule="evenodd" clip-rule="evenodd" d="M7.1459 0C6.49128 0 5.88418 0.365025 5.54288 0.965915L0.25542 10.3926C-0.0824035 11.0172 -0.0843903 11.7749 0.24513 12.3923C0.574651 13.0097 1.18619 13.394 1.85157 13.4018L12.4334 13.4018C13.1056 13.394 13.7171 13.0097 14.0467 12.3923C14.3762 11.7749 14.3742 11.0172 14.0414 10.4018L8.74891 0.965915C8.40761 0.365025 7.80051 0 7.1459 0ZM1.32978 11.7322C1.21994 11.5264 1.22061 11.2738 1.33152 11.0687L6.61287 1.6531C6.72618 1.45464 6.92814 1.3335 7.14587 1.3335C7.36407 1.3335 7.56644 1.45517 7.67961 1.65441L12.9653 11.0779C13.0711 11.2738 13.0718 11.5264 12.962 11.7322C12.8521 11.938 12.6483 12.0661 12.4265 12.0687L1.8584 12.0687C1.64347 12.0661 1.43963 11.938 1.32978 11.7322ZM6.52167 4.73503V7.40169C6.52167 7.76988 6.80116 8.06836 7.14593 8.06836C7.4907 8.06836 7.77019 7.76988 7.77019 7.40169V4.73503C7.77019 4.36684 7.4907 4.06836 7.14593 4.06836C6.80116 4.06836 6.52167 4.36684 6.52167 4.73503ZM7.58735 8.93061C7.83114 9.19096 7.83114 9.61307 7.58735 9.87342C7.34356 10.1338 6.9483 10.1338 6.70451 9.87342C6.46073 9.61307 6.46073 9.19096 6.70451 8.93061C6.9483 8.67026 7.34356 8.67026 7.58735 8.93061Z" fill="#FF6E00"/>
</svg>
