<svg width="34" height="34" viewBox="0 0 34 34" fill="none" xmlns="http://www.w3.org/2000/svg">
<path fill-rule="evenodd" clip-rule="evenodd" d="M32.2975 16.7343C32.2975 25.4232 25.2537 32.467 16.5647 32.467C7.87582 32.467 0.832031 25.4232 0.832031 16.7343C0.832031 8.04537 7.87582 1.00159 16.5647 1.00159C25.2537 1.00159 32.2975 8.04537 32.2975 16.7343Z" fill="#FEFEFE"/>
<mask id="mask0" mask-type="alpha" maskUnits="userSpaceOnUse" x="0" y="0" width="34" height="34">
<path fill-rule="evenodd" clip-rule="evenodd" d="M0.249146 0H33.3451V33.5783H0.249146V0Z" fill="white"/>
</mask>
<g mask="url(#mask0)">
<path fill-rule="evenodd" clip-rule="evenodd" d="M27.6887 21.6138C24.9234 21.6138 22.6812 19.3394 22.6812 16.5338C22.6812 13.7281 24.9234 11.4538 27.6887 11.4538C30.1022 11.4538 32.1244 13.2414 32.5981 15.5475L30.08 15.5391C29.6941 14.6137 28.7874 13.9886 27.7347 13.9886C26.3312 13.9886 25.1932 15.1426 25.1932 16.5666C25.1932 17.9908 26.3312 19.1454 27.7347 19.1454C28.7874 19.1454 29.7053 18.5271 30.0912 17.6015L32.6087 17.5896C32.1419 19.9048 30.1085 21.6138 27.6887 21.6138ZM16.922 21.733C14.1567 21.733 11.7511 19.4764 11.7511 16.6705L11.7483 8.12272H14.2601L14.2635 12.9001C14.9601 12.0998 15.7533 11.5664 16.922 11.5727C19.687 11.5883 21.929 13.8474 21.929 16.653C21.929 19.4587 19.687 21.733 16.922 21.733ZM8.66976 21.653V20.2633C7.97352 21.0636 7.18012 21.597 6.01144 21.5908C3.24619 21.5755 1.00419 19.316 1.00419 16.5104C1.00419 13.7048 3.24619 11.4304 6.01144 11.4304C8.77686 11.4304 11.1824 13.687 11.1824 16.4928L11.1853 21.6353L8.66976 21.653ZM16.7971 0C7.65806 0 0.249146 7.51698 0.249146 16.7891C0.249146 26.0614 7.65806 33.5784 16.7971 33.5784C25.9361 33.5784 33.3451 26.0614 33.3451 16.7891C33.3451 7.51698 25.9361 0 16.7971 0Z" fill="#828282"/>
</g>
<path fill-rule="evenodd" clip-rule="evenodd" d="M16.856 13.8208C15.4081 13.8208 14.2339 14.9947 14.2339 16.4428C14.2339 17.8907 15.4081 19.065 16.856 19.065C18.3039 19.065 19.4781 17.8907 19.4781 16.4428C19.4781 14.9947 18.3039 13.8208 16.856 13.8208Z" fill="#828282"/>
<path fill-rule="evenodd" clip-rule="evenodd" d="M5.78484 13.8208C4.3369 13.8208 3.16272 14.9947 3.16272 16.4428C3.16272 17.8907 4.3369 19.065 5.78484 19.065C7.23277 19.065 8.40696 17.8907 8.40696 16.4428C8.40696 14.9947 7.23277 13.8208 5.78484 13.8208Z" fill="#828282"/>
</svg>
