<svg width="40" height="49" viewBox="0 0 40 49" fill="none" xmlns="http://www.w3.org/2000/svg">
<path opacity="0.5" fill-rule="evenodd" clip-rule="evenodd" d="M28.8 19.6C29.24 19.6 29.6 19.2341 29.6 18.7833C29.6 18.3325 29.24 17.9667 28.8 17.9667H12.8C12.3584 17.9667 12 18.3325 12 18.7833C12 19.2341 12.3584 19.6 12.8 19.6H28.8ZM6.4 14.7H33.6C34.04 14.7 34.4 14.3341 34.4 13.8833C34.4 13.4325 34.04 13.0667 33.6 13.0667H6.4C5.9584 13.0667 5.6 13.4325 5.6 13.8833C5.6 14.3341 5.9584 14.7 6.4 14.7ZM1.6 1.63333H38.4V47.3667H1.6V1.63333ZM39.2 0H0.8C0.3584 0 0 0.365867 0 0.816667V48.1833C0 48.6333 0.3584 49 0.8 49H39.2C39.64 49 40 48.6333 40 48.1833V0.816667C40 0.365867 39.64 0 39.2 0ZM12.8 9.8H28.8C29.24 9.8 29.6 9.43413 29.6 8.98333C29.6 8.53253 29.24 8.16667 28.8 8.16667H12.8C12.3584 8.16667 12 8.53253 12 8.98333C12 9.43413 12.3584 9.8 12.8 9.8ZM26.6304 39.8558C26.344 39.7553 26.0256 39.8345 25.8128 40.0526L22.8128 43.1151L21.3824 37.2784C23.4752 36.9615 25.2576 35.6728 26.2736 33.8729L30.58 41.1968L26.6304 39.8558ZM15.1824 30.4208C15.1824 27.4939 17.5152 25.1125 20.3824 25.1125C23.2504 25.1125 25.5824 27.4939 25.5824 30.4208C25.5824 33.3478 23.2504 35.7292 20.3824 35.7292C17.5152 35.7292 15.1824 33.3478 15.1824 30.4208ZM17.9472 43.1208L14.9472 40.0583C14.7328 39.8362 14.416 39.7586 14.128 39.8607L10.1792 41.2017L14.4888 33.8688C15.504 35.6704 17.2856 36.9599 19.3776 37.2776L17.9472 43.1208ZM27.064 32.0411C27.048 32.015 27.0232 31.9995 27.0048 31.9749C27.1176 31.4751 27.1824 30.9557 27.1824 30.4208C27.1824 26.5939 24.1312 23.4792 20.3824 23.4792C16.6336 23.4792 13.5824 26.5939 13.5824 30.4208C13.5824 30.9549 13.6472 31.4727 13.76 31.9717C13.7392 31.9986 13.712 32.0158 13.6944 32.0444L7.6944 42.2527C7.5232 42.5451 7.5472 42.9183 7.7568 43.1821C7.9664 43.4499 8.3136 43.5561 8.6336 43.4458L14.1648 41.5667L17.816 45.2907C17.9696 45.4459 18.1728 45.5292 18.3824 45.5292C18.4528 45.5292 18.5248 45.5194 18.592 45.5038C18.8704 45.4246 19.0864 45.1992 19.1552 44.9134L20.38 39.9105L21.6048 44.9101C21.6752 45.1943 21.8896 45.4189 22.168 45.5006C22.24 45.5194 22.3128 45.5292 22.3824 45.5292C22.592 45.5292 22.7952 45.4459 22.9424 45.2874L26.592 41.5642L32.1232 43.4426C32.44 43.5528 32.792 43.4459 33.0016 43.1788C33.2112 42.9126 33.2352 42.5434 33.064 42.2494L27.064 32.0411Z" fill="#575C6B"/>
</svg>
