<svg width="48" height="48" viewBox="0 0 48 48" fill="none" xmlns="http://www.w3.org/2000/svg">
<path opacity="0.5" fill-rule="evenodd" clip-rule="evenodd" d="M12 13.6C12 14.0416 12.3584 14.4 12.8 14.4H33.6C34.0424 14.4 34.4 14.0416 34.4 13.6C34.4 13.1584 34.0424 12.8 33.6 12.8H12.8C12.3584 12.8 12 13.1584 12 13.6ZM12 8.8C12 9.2416 12.3584 9.6 12.8 9.6H21.8168C22.2592 9.6 22.6168 9.2416 22.6168 8.8C22.6168 8.3584 22.2592 8 21.8168 8H12.8C12.3584 8 12 8.3584 12 8.8ZM33.6 17.6H12.8C12.3584 17.6 12 17.9584 12 18.4C12 18.8416 12.3584 19.2 12.8 19.2H33.6C34.0424 19.2 34.4 18.8416 34.4 18.4C34.4 17.9584 34.0424 17.6 33.6 17.6ZM37.6 4.8V41.8C37.6 44.0216 36.2032 46.4 33.8 46.4H32.8C31.0336 46.4 29.6 44.9664 29.6 43.2C29.6 41.4336 31.0336 40 32.8 40C33.24 40 33.6 39.6408 33.6 39.2C33.6 38.7592 33.24 38.4 32.8 38.4H8.8V5.8C8.8 3.4336 11.5872 1.6 13.7984 1.6H39.1216C38.3168 2.456 37.6 3.584 37.6 4.8ZM29.2256 46.4H4.8C3.0336 46.4 1.6 44.9664 1.6 43.2C1.6 41.4336 3.0336 40 4.8 40H29.2256C28.464 40.8504 28 41.972 28 43.2C28 44.428 28.464 45.5504 29.2256 46.4ZM43.2 0C43.1288 0 43.0648 0.0232 42.9992 0.0408C42.9336 0.0232 42.8696 0 42.7984 0H13.7984C10.78 0 7.2 2.3824 7.2 5.8V38.4H4.8C2.1528 38.4 0 40.5528 0 43.2C0 45.8472 2.1528 48 4.8 48H33.8C36.8432 48 39.2 45.1592 39.2 41.8V4.8C39.2 3.096 40.8888 1.6 42.6904 1.6C42.7784 1.6 42.8656 1.576 42.9512 1.5504C43.0312 1.576 43.112 1.6 43.2 1.6C44.9648 1.6 46.4 3.0352 46.4 4.8C46.4 6.5648 44.9648 8 43.2 8C42.7584 8 42.4 8.3584 42.4 8.8C42.4 9.2416 42.7584 9.6 43.2 9.6C45.8472 9.6 48 7.4464 48 4.8C48 2.1536 45.8472 0 43.2 0ZM33.6 27.2H12.8C12.3584 27.2 12 27.5592 12 28C12 28.4408 12.3584 28.8 12.8 28.8H33.6C34.0424 28.8 34.4 28.4408 34.4 28C34.4 27.5592 34.0424 27.2 33.6 27.2ZM33.6 32H12.8C12.3584 32 12 32.3592 12 32.8C12 33.2408 12.3584 33.6 12.8 33.6H33.6C34.0424 33.6 34.4 33.2408 34.4 32.8C34.4 32.3592 34.0424 32 33.6 32ZM33.6 22.4H12.8C12.3584 22.4 12 22.7584 12 23.2C12 23.6416 12.3584 24 12.8 24H33.6C34.0424 24 34.4 23.6416 34.4 23.2C34.4 22.7584 34.0424 22.4 33.6 22.4Z" fill="#575C6B"/>
</svg>
