<svg width="45" height="46" viewBox="0 0 45 46" fill="none" xmlns="http://www.w3.org/2000/svg">
<path opacity="0.5" fill-rule="evenodd" clip-rule="evenodd" d="M35.4087 39.1906C34.1911 38.235 32.5178 37.6409 30.4113 37.6409H28.6933L26.6166 34.9744C28.9696 33.0463 30.628 29.6964 30.7475 26.6968C32.9511 24.3552 31.4795 18.3604 31.0911 16.9342C31.599 15.3615 31.3525 13.6319 30.4039 12.2622C28.5663 9.62171 24.7267 9.1815 20.9619 11.4279C15.0458 11.4859 14.1345 14.0067 14.1121 16.7676C13.7908 17.6101 12.4089 21.8374 14.4108 26.5272C14.4706 29.5893 16.1663 33.0574 18.594 35.0146L16.5846 37.6409H14.859C12.7376 37.6409 11.0419 38.2559 9.80193 39.2099C4.87181 35.3997 1.68964 29.4488 1.68964 22.7691C1.68964 11.2955 11.0643 1.96125 22.5904 1.96125C34.1164 1.96125 43.4911 11.2955 43.4911 22.7691C43.4911 29.4384 40.3239 35.3797 35.4087 39.1906ZM29.5747 17.1171C30.359 19.8096 31.0313 24.5426 29.5149 25.7918C29.3431 25.9338 29.246 26.1465 29.246 26.3688C29.246 30.2087 26.1087 35.08 22.5829 35.08C19.0571 35.08 15.9198 30.2087 15.9198 26.3688C15.9198 26.2647 15.8974 26.1621 15.8525 26.0677C13.8282 21.4835 15.5388 17.239 15.5612 17.1967C15.5911 17.1059 15.6135 17.0078 15.6135 16.9096C15.6135 14.6528 16.0243 12.9262 21.1786 12.9262C21.3205 12.9262 21.4549 12.8868 21.5745 12.8132C23.0535 11.8993 24.4578 11.4368 25.7501 11.4368C27.1993 11.4368 28.4094 12.0332 29.1639 13.1151C29.881 14.1487 30.0378 15.4686 29.5971 16.6449C29.5374 16.7951 29.5299 16.9617 29.5747 17.1171ZM22.5904 43.577C18.34 43.577 14.3884 42.3062 11.0867 40.1319C12.028 39.5274 13.2904 39.1281 14.859 39.1281H16.9655C17.212 39.1281 17.4361 39.1556 17.5781 38.9608L19.9161 35.8816C20.7602 36.3181 21.6566 36.5791 22.5829 36.5791C23.5316 36.5791 24.4504 36.3054 25.3094 35.8481L27.7072 38.9876C27.8492 39.1772 28.0733 39.1281 28.3123 39.1281H30.4113C31.9576 39.1281 33.1976 39.5133 34.1239 40.1133C30.8147 42.3002 26.8482 43.577 22.5904 43.577ZM22.5904 0.461426C10.2352 0.461426 0.180725 10.4687 0.180725 22.7691C0.180725 35.0696 10.2352 45.0768 22.5904 45.0768C27.401 45.0768 31.8605 43.5547 35.5133 40.9767C35.6328 40.9276 35.7448 40.8398 35.8419 40.7461C41.3921 36.6817 45 30.1381 45 22.7691C45 10.4687 34.9455 0.461426 22.5904 0.461426Z" fill="#575C6B"/>
</svg>
