<svg width="38" height="48" viewBox="0 0 38 48" fill="none" xmlns="http://www.w3.org/2000/svg">
<path opacity="0.5" fill-rule="evenodd" clip-rule="evenodd" d="M10.7393 2.6248V11.2H2.66417L10.7393 2.6248ZM19.8264 46.4H1.6522C1.6522 46.4 1.6522 13.6 1.6522 12.8H11.5654C12.0214 12.8 12.3915 12.4416 12.3915 12V1.6H34.6962V30.4C34.6962 30.8408 35.068 31.2 35.5223 31.2C35.9783 31.2 36.3484 30.8408 36.3484 30.4V0.8C36.3484 0.3584 35.9783 0 35.5223 0H11.3407C11.1061 0 10.8864 0.0944 10.7286 0.2608L0.214786 11.4256C0.0760012 11.5728 0 11.7648 0 11.9648V47.2C0 47.6408 0.371745 48 0.8261 48H19.8264C20.2824 48 20.6525 47.6408 20.6525 47.2C20.6525 46.7592 20.2824 46.4 19.8264 46.4ZM29.1126 37.8336C27.239 39.6552 23.9776 39.6552 22.104 37.8336C21.168 36.9224 20.6517 35.7128 20.6517 34.4232C20.6517 33.1352 21.168 31.924 22.104 31.0144C23.0399 30.1032 24.2857 29.6 25.6091 29.6C26.9325 29.6 28.1766 30.1032 29.1126 31.0128C30.0494 31.924 30.5649 33.1336 30.5649 34.4232C30.5649 35.7128 30.0494 36.9248 29.1126 37.8336ZM37.7577 45.836L30.4443 38.7528C31.5851 37.5672 32.2171 36.032 32.2171 34.4C32.2171 32.6936 31.5298 31.0832 30.2824 29.8784C29.0341 28.6664 27.3737 28 25.6091 28C23.8437 28 22.1841 28.6664 20.9359 29.8784C19.686 31.0848 18.9995 32.6936 18.9995 34.4C18.9995 36.1104 19.686 37.7168 20.9359 38.9256C22.1833 40.1344 23.8421 40.8 25.6075 40.8C26.8912 40.8 28.118 40.444 29.1746 39.7856L36.5896 46.9672C36.7516 47.1216 36.963 47.2 37.1745 47.2C37.3885 47.2 37.6 47.1216 37.7577 46.9672C38.0807 46.6544 38.0807 46.1456 37.7577 45.836Z" fill="#575C6B"/>
</svg>
